/* XPM */
static char * unknown[] = {
"16 16 6 1",
"  s None c None",
". c #000000",
"# c #0000ff",
"a c #0000e6",
"b c #0000ba",
"c c #000080",
"  .......       ",
" .ccccccc.      ",
".ccccccccc.     ",
"..ccccccc..     ",
".b.......b.     ",
".ba#####ab.     ",
".ba#####ab.     ",
".ba#####ab.     ",
".ba#####ab.     ",
".ba#####ab.     ",
".ba#####ab.     ",
".ba#####ab.     ",
".ba#####ab.     ",
" .a#####a..     ",
"  ........      ",
"                "};