/* XPM */
static char * unknown[] = {
"16 16 7 1",
"  s None c None",
". c #000000",
"# c #0000ff",
"a c #323232",
"b c #0000e6",
"c c #0000ba",
"d c #000080",
"  .......       ",
" .ddddddd.      ",
".ddddddddd.     ",
"..ddddddd..     ",
".c.......c.     ",
".cb#####bc.     ",
".cb###aabc.    a",
".cb###a.ac.   a.",
".cb####a.a.  a.a",
".cb#####a.a a.a ",
".cb#####ba.a.a  ",
".cb#####bc..a   ",
".cb#####ba.a.a  ",
" .b#####a.a a.a ",
"  .....a.a   a.a",
"      a.a     a."};