/* XPM */
static char * unknown[] = {
"16 16 9 1",
"  s None c None",
". c #808000",
"# c #00ff00",
"a c #000000",
"b c #0000ff",
"c c #008000",
"d c #0000e6",
"e c #0000ba",
"f c #000080",
"  aaaaaaa       ",
" afffffffa      ",
"afffffffffa     ",
"aafffffffaa  cc ",
"aeaaaaaaaea c#. ",
"aedbbbbbdeac#.  ",
"aedbbbbbdec#.   ",
"aedbbbbbdc#.    ",
"aedbbbbbc#.cccc ",
"aedbbbbc######c ",
"aedbbbbccccc#.c ",
"aedbbbccdec#.   ",
"aedbbbc#dc#.    ",
" adbbbc#c#.     ",
"  aaaac##.ccc   ",
"      c#####c   "};