/* XPM */
static char * unknown[] = {
"16 16 5 1",
". c #ff0000",
"# c #00ff00",
"a c #c8c8c8",
"b c #ff00ff",
"c c #ffffff",
"cccccccccccccccc",
"cccccccccccc##cc",
"ccccccccccc#cc#c",
"cccccccccc#cccc#",
"c.ccccccc#cccccc",
".c.ccccc#ccccccc",
"ccc.ccc#cccccccc",
"cccc.c#cccc.cccc",
"##ccc#cccc.c.ccc",
"aa###a.ac.aaa.aa",
"aaaaaabb.aaaaa.a",
"aaabbbaabaaaaaa.",
"bbbccccccbbccbbb",
"cccccccccccbbccc",
"cccccccccccccccc",
"cccccccccccccccc"};