/* XPM */
static char * unknown[] = {
"16 16 9 1",
"  s None c None",
". c #b1b1b1",
"# c #aeaeae",
"a c #000000",
"b c #c8c8c8",
"c c #800000",
"d c #b2b2b2",
"e c #9b9b9b",
"f c #bbbbbb",
"aaaaaaaa        ",
"aebbbbd#a       ",
"aa.bbbcf#a      ",
"aea.bcccf#a     ",
"a.ea.cbbcf#a    ",
"abcea.bbbcb#a   ",
"abb.ea.bbbcb#a  ",
"abbb.ca.bbbc.da ",
"abbbc.ea..bb.eea",
"abbcb..aaaaaaaaa",
"abcbbb#a        ",
"abcccc#a        ",
"abbb..ea        ",
"abb..eea        ",
"aaaaaaaa        ",
"                "};