/* XPM */
static char * unknown[] = {
"16 16 10 1",
"  s None c None",
". c #d90000",
"# c #ff0000",
"a c #000000",
"b c #0000ff",
"c c #323232",
"d c #800000",
"e c #0000e6",
"f c #0000ba",
"g c #000080",
"  aaaaaaa       ",
" aggggggga      ",
"aggggggggga     ",
"aagggggggaa     ",
"afaaaaaaafa     ",
"afebbbbbefa     ",
"afebbdddefa  ddd",
"afebbd#.dfa d##c",
"afebbbd#.dad#.c ",
"afebbbbd#.d#.c  ",
"afebbbbbd##.c   ",
"afebbbbbd##.d   ",
"afebbbbd#.c#.d  ",
" aebbbd#.cad#.d ",
"  aaad#.ca  d#.d",
"     d#c     d#d"};