/* XPM */
static char * unknown[] = {
"16 16 15 1",
"  s None c None",
". c #000000",
"# c #f2f2f2",
"a c #e4e4e4",
"b c #f0f0f0",
"c c #0000ff",
"d c #f3f3f3",
"e c #d4d4d4",
"f c #c3c3c3",
"g c #ffffff",
"h c #f4f4f4",
"i c #000080",
"j c #0000e6",
"k c #0000ba",
"l c #fafafa",
"  .......       ",
" .iiiiiii.      ",
".iiiiiiiii.     ",
"..iiiiiii..     ",
".k.......k.     ",
".kjcccccjk......",
".kjcccccj.b.adl.",
".kjccccc.bg.dlh.",
".kjcccc.bgg.lh#.",
".kjcccc.....h#a.",
".kjcccc.dllh#aa.",
".kjcccc.hhh#aae.",
".kjcccc.h##aaee.",
" .jcccc.##aaeef.",
"  ......##aeeff.",
"       ........."};