/* XPM */
static char * unknown[] = {
"16 16 11 1",
"  s None c None",
". c #a8a800",
"# c #c7c700",
"a c #000000",
"b c #d0d000",
"c c #0000ff",
"d c #c3c300",
"e c #e3e300",
"f c #0000e6",
"g c #0000ba",
"h c #000080",
"  aaaaaaa       ",
" ahhhhhhha      ",
"ahhhhhhhhha     ",
"aahhhhhhhaa     ",
"agaaaaaaaga     ",
"agfcccccfga     ",
"agfcccccfga     ",
"agfcccccfga     ",
"agfccaaaaaaa    ",
"agfcca#####a    ",
"agfcca#eeeaaaaaa",
"agfcca#eea..dbba",
"agfcca#ea.ddbba ",
" afcca#a.dddda  ",
"  aaaaa.....a   ",
"     aaaaaaa    "};