/* XPM */
static char * unknown[] = {
"16 16 4 1",
"  s None c None",
". c #000000",
"# c #ffffff",
"a c #969696",
"   ....   ...   ",
"  .####....  .  ",
" .######..   .  ",
".########.  .   ",
".#aaaaaa#. .    ",
".#a.a.aa#.  .   ",
".#a.aa.a#.   ...",
".#a.a.aa#.      ",
".#aaaaaa#.      ",
".########.      ",
".########.      ",
".########.      ",
".##...###.      ",
".#####..#.      ",
".########.      ",
"..........      "};