/* XPM */
static char * unknown[] = {
"4 24 2 1",
"  s None c None",
". c #969696",
" .. ",
" .. ",
" .. ",
" .. ",
" .. ",
" .. ",
" .. ",
" .. ",
" .. ",
" .. ",
" .. ",
" .. ",
" .. ",
" .. ",
" .. ",
" .. ",
" .. ",
" .. ",
" .. ",
" .. ",
" .. ",
" .. ",
" .. ",
" .. "};