/* XPM */
static char * unknown[] = {
"16 16 5 1",
". c #ff0000",
"# c #00ff00",
"a c #0000ff",
"b c #c8c8c8",
"c c #ffffff",
"cccccccccccccccc",
"cccccccccccccccc",
"cccccccccccccccc",
"cc#cc#cccccccc#c",
"cc#cccc#cc.cc#cc",
"ccccc#ccccc##ccc",
"ccccccc.ccc#c.cc",
"c.cccc#cc.cc.c.c",
"cccccccccccccccc",
"ba.b.bbbbbb..b.b",
"b.b..b.bb#b.b.bb",
"bbbbbbbb#bbbbb.b",
"cccccccccccccccc",
"ccaacacccaccaaac",
"ccccaccaccccacac",
"cccccccccccccccc"};